<?xml version="1.0" encoding="utf-8"?>
<!-- Generator: Adobe Illustrator 20.1.0, SVG Export Plug-In . SVG Version: 6.00 Build 0)  -->
<svg version="1.1" id="Layer_1" xmlns="http://www.w3.org/2000/svg" xmlns:xlink="http://www.w3.org/1999/xlink" x="0px" y="0px"
	 viewBox="0 0 244 80" style="enable-background:new 0 0 244 80;" xml:space="preserve">
<style type="text/css">
	.st0{fill:#262261;}
	.st1{fill:#6D6E70;}
	.st2{fill:#BD202E;}
	.st3{fill:#FFFFFF;}
</style>
<g>
	<g>
		<g>
			<path class="st0" d="M78.6,37.7V3l23.6,24.7V5.2h4.9v34.4L83.5,15v22.7H78.6z"/>
			<path class="st0" d="M130.4,28.5h-14.6c0.1,1.7,0.7,3,1.6,4c1,1,2.2,1.5,3.7,1.5c1.2,0,2.1-0.3,2.9-0.8c0.8-0.6,1.6-1.6,2.6-3.1
				l4,2.2c-0.6,1-1.3,1.9-1.9,2.7c-0.7,0.7-1.4,1.4-2.2,1.8c-0.8,0.5-1.6,0.8-2.5,1.1c-0.9,0.2-1.9,0.3-3,0.3c-3,0-5.5-1-7.3-2.9
				c-1.8-2-2.8-4.6-2.8-7.9c0-3.2,0.9-5.9,2.7-7.9c1.8-2,4.2-3,7.2-3c3,0,5.4,1,7.1,2.9c1.7,1.9,2.6,4.5,2.6,7.9L130.4,28.5z
				 M125.5,24.7c-0.7-2.5-2.2-3.8-4.8-3.8c-0.6,0-1.1,0.1-1.6,0.3c-0.5,0.2-1,0.4-1.4,0.8c-0.4,0.3-0.8,0.7-1.1,1.2
				c-0.3,0.5-0.5,1-0.7,1.6H125.5z"/>
			<path class="st0" d="M136.6,17.2l5.3,11.7l5.8-13.5l5.8,13.5l5.3-11.7h5.3l-10.7,22L147.7,26l-5.7,13.2l-10.7-22H136.6z"/>
			<path class="st0" d="M167.2,37.7V5.2h6.8c3.3,0,5.8,0.3,7.7,1c2,0.6,3.9,1.7,5.5,3.2c3.3,3.1,5,7.1,5,12c0,5-1.7,9-5.2,12.1
				c-1.7,1.5-3.6,2.6-5.5,3.2c-1.8,0.6-4.3,0.9-7.6,0.9H167.2z M172.1,33.1h2.2c2.2,0,4-0.2,5.5-0.7c1.5-0.5,2.8-1.3,3.9-2.3
				c2.4-2.2,3.6-5.1,3.6-8.6c0-3.6-1.2-6.4-3.6-8.7c-2.1-2-5.3-3-9.4-3h-2.2V33.1z"/>
			<path class="st0" d="M213.5,28.5h-14.6c0.1,1.7,0.7,3,1.6,4c1,1,2.2,1.5,3.7,1.5c1.2,0,2.1-0.3,2.9-0.8c0.8-0.6,1.6-1.6,2.6-3.1
				l4,2.2c-0.6,1-1.3,1.9-1.9,2.7c-0.7,0.7-1.4,1.4-2.2,1.8c-0.8,0.5-1.6,0.8-2.5,1.1c-0.9,0.2-1.9,0.3-3,0.3c-3,0-5.5-1-7.3-2.9
				c-1.8-2-2.8-4.6-2.8-7.9c0-3.2,0.9-5.9,2.7-7.9c1.8-2,4.2-3,7.2-3c3,0,5.4,1,7.1,2.9c1.7,1.9,2.6,4.5,2.6,7.9L213.5,28.5z
				 M208.6,24.7c-0.7-2.5-2.2-3.8-4.8-3.8c-0.6,0-1.1,0.1-1.6,0.3c-0.5,0.2-1,0.4-1.4,0.8c-0.4,0.3-0.8,0.7-1.1,1.2
				c-0.3,0.5-0.5,1-0.7,1.6H208.6z"/>
			<path class="st0" d="M216,17.2h4.7v1.9c0.9-1,1.7-1.6,2.3-1.9c0.7-0.3,1.5-0.5,2.6-0.5c2.3,0,4.1,1,5.5,3c1.5-2,3.5-3,6-3
				c4.6,0,6.9,2.8,6.9,8.4v12.6h-4.7V26.3c0-2-0.2-3.3-0.7-4.2c-0.5-0.8-1.3-1.2-2.4-1.2c-1.3,0-2.2,0.5-2.8,1.5
				c-0.6,1-0.9,2.6-0.9,4.7v10.6h-4.7V26.4c0-3.6-1-5.5-3.1-5.5c-1.3,0-2.3,0.5-2.9,1.5s-0.9,2.6-0.9,4.7v10.6H216V17.2z"/>
			<path class="st1" d="M83.5,63.9v13.2h-4.9V44.7h5.5c2.7,0,4.8,0.2,6.1,0.6c1.4,0.4,2.6,1.1,3.7,2.1c1.9,1.8,2.8,4.1,2.8,6.9
				c0,3-1,5.3-3,7.1c-2,1.7-4.7,2.6-8,2.6H83.5z M83.5,59.4h1.8c4.5,0,6.7-1.7,6.7-5.2c0-3.3-2.3-5-6.9-5h-1.6V59.4z"/>
			<path class="st1" d="M114.9,69.2h-13.8l-3.6,7.9h-5.3l16-34.5l15.4,34.5h-5.3L114.9,69.2z M113,64.6l-4.8-11l-5,11H113z"/>
			<path class="st1" d="M147.5,46.4v5.8c-2.8-2.4-5.7-3.5-8.8-3.5c-3.3,0-6.1,1.2-8.4,3.6c-2.3,2.4-3.4,5.3-3.4,8.7
				c0,3.4,1.1,6.3,3.4,8.6c2.3,2.3,5.1,3.5,8.4,3.5c1.7,0,3.2-0.3,4.4-0.8c0.7-0.3,1.4-0.7,2.1-1.1c0.7-0.5,1.5-1.1,2.3-1.7v5.9
				c-2.8,1.6-5.7,2.4-8.8,2.4c-4.6,0-8.6-1.6-11.8-4.9c-3.3-3.3-4.9-7.2-4.9-11.8c0-4.1,1.4-7.8,4.1-11c3.3-4,7.7-5.9,13-5.9
				C142,44,144.8,44.8,147.5,46.4z"/>
		</g>
	</g>
	<g>
		<g>
			<rect x="6.7" y="28.3" class="st2" width="4.5" height="18.4"/>
		</g>
		<g>
			<rect x="15.7" y="19" class="st2" width="4.5" height="27.6"/>
		</g>
		<g>
			<rect x="24.6" y="9.8" class="st2" width="4.5" height="36.8"/>
		</g>
		<g>
			<g>
				<rect x="33.3" y="14" class="st2" width="4.5" height="32.7"/>
			</g>
		</g>
		<g>
			<g>
				<rect x="43.1" y="5" class="st2" width="4.5" height="41.7"/>
			</g>
		</g>
		<g>
			<g>
				<rect x="51.7" class="st2" width="3.9" height="46.7"/>
			</g>
		</g>
	</g>
	<g>
		<g>
			<polygon class="st0" points="31.2,22.1 38.2,43.7 60.8,43.7 42.5,57.1 49.5,78.7 31.2,65.3 12.8,78.7 19.8,57.1 1.5,43.7 
				24.2,43.7 			"/>
			<path class="st3" d="M50.4,80L31.2,66L11.9,80l7.4-22.7L0,43.2h23.8l7.4-22.7l7.4,22.7h23.8l-19.3,14L50.4,80z M3,44.2l17.4,12.7
				l-6.6,20.5l17.4-12.7l17.4,12.7l-6.6-20.5l17.4-12.7H37.8l-6.6-20.5l-6.6,20.5H3z"/>
		</g>
	</g>
</g>
</svg>
